<?xml version="1.0" encoding="UTF-8"?>
<svg id="Camada_2" data-name="Camada 2" xmlns="http://www.w3.org/2000/svg" viewBox="0 0 454.1 151.17">
  <defs>
    <style>
      .cls-1 {
        fill: #c3281e;
      }
    </style>
  </defs>
  <g id="Camada_1-2" data-name="Camada 1">
    <g>
      <g>
        <path class="cls-1" d="M67.38,46.29c-1.79-.59-3.58-1.16-5.37-1.74v-24.13c.19-.06.4-.09.63-.09,8.72.19,16.62,2.76,23.78,7.7.59.4.82.85.8,1.54-.02,3.92,0,7.84-.02,11.73,0,.29-.15.65-.37.8-3.18,2.35-6.36,4.68-9.57,6.97-.23.17-.68.19-.99.11-2.98-.96-5.94-1.91-8.9-2.89Z"/>
        <path class="cls-1" d="M87.26,84.38c.02,3.87,0,7.75.02,11.62,0,.69-.15,1.14-.76,1.56-7.18,5-15.14,7.61-23.89,7.79-.23,0-.43-.02-.62-.08v-24.07c4.81-1.59,9.63-3.16,14.46-4.72.25-.08.65-.03.85.14,3.18,2.25,6.34,4.55,9.49,6.87.25.19.45.59.45.89Z"/>
        <path class="cls-1" d="M102.5,50.14c2.27,7.1,2.65,14.3,1.05,21.59-.32,1.45-.39,3.22-1.28,4.21-.83.96-2.58,1.14-3.95,1.59-2.65.89-5.29,1.76-7.95,2.59-.31.11-.82.06-1.06-.12-3.16-2.25-6.3-4.52-9.41-6.84-.25-.19-.42-.63-.43-.96-.03-6.26-.03-12.53-.02-18.79,0-.31.22-.76.46-.96,3.13-2.31,6.26-4.57,9.41-6.84.22-.17.62-.23.86-.15,1.91.59,3.8,1.2,5.71,1.82,0,.02-.03.03-.03.03,1.9.62,3.81,1.2,5.68,1.88.39.14.83.56.96.94Z"/>
        <path class="cls-1" d="M62.02.83C27.77.83,0,28.59,0,62.85s27.77,62,62.02,62,62.02-27.76,62.02-62S96.27.83,62.02.83ZM47.57,107.35c-24.49-7.93-38.02-34.46-30.06-58.94,8.02-24.67,34.38-38.01,59.22-29.98,24.1,7.81,37.68,34.39,29.87,58.56-8.01,24.78-34.35,38.33-59.04,30.37Z"/>
      </g>
      <g>
        <g>
          <path d="M204.44.83v58.46h-14.24V24.23l-13.07,35.06h-11.49l-13.16-35.14v35.14h-14.24V.83h16.82l16.4,40.47L187.7.83h16.74Z"/>
          <path d="M228.68.83v34.98c0,3.5.86,6.19,2.58,8.08,1.72,1.89,4.25,2.83,7.58,2.83s5.88-.94,7.66-2.83c1.78-1.89,2.66-4.58,2.66-8.08V.83h14.24v34.89c0,5.22-1.11,9.63-3.33,13.24-2.22,3.61-5.2,6.33-8.95,8.16-3.75,1.83-7.92,2.75-12.53,2.75s-8.73-.9-12.37-2.71c-3.64-1.8-6.51-4.52-8.62-8.16-2.11-3.64-3.16-8.06-3.16-13.28V.83h14.24Z"/>
          <path d="M325.69,59.29h-14.24l-23.82-36.06v36.06h-14.24V.83h14.24l23.82,36.22V.83h14.24v58.46Z"/>
          <path d="M374.07,4.5c4.61,2.44,8.17,5.87,10.7,10.28,2.53,4.41,3.79,9.51,3.79,15.28s-1.26,10.8-3.79,15.24c-2.53,4.44-6.11,7.88-10.74,10.33-4.64,2.44-10.01,3.66-16.11,3.66h-21.9V.83h21.9c6.16,0,11.55,1.22,16.16,3.66ZM369.57,42.55c3-2.94,4.5-7.11,4.5-12.49s-1.5-9.58-4.5-12.57c-3-3-7.19-4.5-12.57-4.5h-6.74v33.98h6.74c5.38,0,9.58-1.47,12.57-4.41Z"/>
          <path d="M409.09,56.04c-4.58-2.55-8.22-6.12-10.91-10.7-2.69-4.58-4.04-9.73-4.04-15.45s1.35-10.85,4.04-15.41c2.69-4.55,6.33-8.11,10.91-10.66,4.58-2.55,9.62-3.83,15.11-3.83s10.53,1.28,15.11,3.83,8.19,6.11,10.83,10.66c2.63,4.55,3.96,9.69,3.96,15.41s-1.33,10.87-4,15.45-6.27,8.15-10.83,10.7c-4.55,2.55-9.58,3.83-15.07,3.83s-10.53-1.28-15.11-3.83ZM435.4,42.22c2.8-3.11,4.21-7.22,4.21-12.32s-1.4-9.29-4.21-12.37c-2.8-3.08-6.54-4.62-11.2-4.62s-8.48,1.53-11.28,4.58c-2.8,3.05-4.2,7.19-4.2,12.41s1.4,9.28,4.2,12.37c2.8,3.08,6.56,4.62,11.28,4.62s8.4-1.55,11.2-4.66Z"/>
        </g>
        <g>
          <path d="M181.79,99.91c2.05,2.64,3.08,5.65,3.08,9.04,0,4.89-1.71,8.76-5.12,11.62-3.42,2.86-8.18,4.29-14.28,4.29h-27.23v-58.46h26.32c5.94,0,10.59,1.36,13.95,4.08,3.36,2.72,5.04,6.41,5.04,11.08,0,3.44-.9,6.3-2.71,8.58-1.8,2.28-4.2,3.86-7.2,4.75,3.39.72,6.11,2.4,8.16,5.04ZM152.48,90.05h9.33c2.33,0,4.12-.51,5.37-1.54,1.25-1.03,1.87-2.54,1.87-4.54s-.62-3.53-1.87-4.58c-1.25-1.05-3.04-1.58-5.37-1.58h-9.33v12.24ZM168.51,111.74c1.3-1.08,1.96-2.65,1.96-4.71s-.68-3.66-2.04-4.83c-1.36-1.17-3.23-1.75-5.62-1.75h-10.32v12.91h10.49c2.39,0,4.23-.54,5.54-1.62Z"/>
          <path d="M205.65,121.61c-4.58-2.55-8.22-6.12-10.91-10.7-2.69-4.58-4.04-9.73-4.04-15.45s1.35-10.85,4.04-15.41c2.69-4.55,6.33-8.11,10.91-10.66s9.62-3.83,15.11-3.83,10.53,1.28,15.11,3.83,8.19,6.11,10.83,10.66c2.63,4.55,3.96,9.69,3.96,15.41s-1.33,10.87-4,15.45-6.27,8.15-10.83,10.7c-4.55,2.55-9.58,3.83-15.07,3.83s-10.53-1.28-15.11-3.83ZM231.97,107.78c2.8-3.11,4.21-7.22,4.21-12.32s-1.4-9.29-4.21-12.37c-2.8-3.08-6.54-4.62-11.2-4.62s-8.48,1.53-11.28,4.58c-2.8,3.05-4.2,7.19-4.2,12.41s1.4,9.28,4.2,12.37c2.8,3.08,6.56,4.62,11.28,4.62s8.4-1.55,11.2-4.66Z"/>
          <path d="M272.81,113.86h18.65v10.99h-32.89v-58.46h14.24v47.47Z"/>
          <path d="M334.68,114.53h-21.82l-3.5,10.33h-14.91l21.15-58.46h16.49l21.15,58.46h-15.07l-3.5-10.33ZM331.02,103.54l-7.24-21.4-7.16,21.4h14.41Z"/>
        </g>
        <g>
          <path d="M138.35,131.83h10.25v2.06h-7.79v6.33h7.2v2.03h-7.2v8.61h-2.46v-19.03Z"/>
          <path d="M163.67,131.83h2.46v16.97h8.13v2.06h-10.59v-19.03Z"/>
          <path d="M191.65,144.87l-1.98,5.99h-2.54l6.47-19.03h2.97l6.5,19.03h-2.63l-2.03-5.99h-6.75ZM197.89,142.95l-1.86-5.48c-.42-1.24-.71-2.37-.99-3.47h-.06c-.28,1.13-.59,2.29-.96,3.44l-1.86,5.51h5.73Z"/>
          <path d="M233.34,142.5c-.14-2.65-.31-5.85-.28-8.22h-.09c-.65,2.23-1.44,4.6-2.4,7.23l-3.36,9.23h-1.86l-3.08-9.06c-.9-2.68-1.67-5.14-2.2-7.4h-.06c-.06,2.37-.2,5.56-.37,8.42l-.51,8.16h-2.34l1.33-19.03h3.13l3.25,9.21c.79,2.34,1.44,4.43,1.92,6.41h.08c.48-1.92,1.16-4.01,2.01-6.41l3.39-9.21h3.13l1.19,19.03h-2.4l-.48-8.36Z"/>
          <path d="M261.43,141.94h-7.4v6.86h8.25v2.06h-10.7v-19.03h10.28v2.06h-7.82v6.02h7.4v2.03Z"/>
          <path d="M277.03,150.86v-19.03h2.68l6.1,9.63c1.41,2.23,2.51,4.24,3.42,6.18l.06-.03c-.23-2.54-.28-4.86-.28-7.82v-7.96h2.32v19.03h-2.48l-6.04-9.66c-1.33-2.12-2.6-4.29-3.56-6.35l-.08.03c.14,2.4.2,4.69.2,7.85v8.13h-2.32Z"/>
          <path d="M321.67,150.01c-1.1.39-3.28,1.04-5.85,1.04-2.88,0-5.25-.73-7.12-2.51-1.64-1.58-2.65-4.12-2.65-7.09.03-5.68,3.92-9.83,10.31-9.83,2.2,0,3.92.48,4.74.88l-.59,2.01c-1.02-.45-2.29-.82-4.21-.82-4.63,0-7.65,2.88-7.65,7.65s2.91,7.68,7.34,7.68c1.61,0,2.71-.23,3.28-.51v-5.68h-3.87v-1.98h6.27v9.15Z"/>
          <path d="M353.25,141.14c0,6.55-3.98,10.03-8.84,10.03s-8.56-3.9-8.56-9.66c0-6.04,3.76-10,8.84-10s8.56,3.98,8.56,9.63ZM338.48,141.46c0,4.07,2.2,7.71,6.07,7.71s6.1-3.59,6.1-7.91c0-3.78-1.98-7.74-6.07-7.74s-6.1,3.76-6.1,7.94Z"/>
        </g>
      </g>
    </g>
  </g>
</svg>
